<svg height="512pt" viewBox="0 0 512.00011 512" width="512pt" xmlns="http://www.w3.org/2000/svg"><path d="m372.347656 370.359375h-220.488281c-43.929687 0-79.671875-35.746094-79.671875-79.683594v-5.71875c0-38.808593 27.890625-71.226562 64.675781-78.265625v-21.5625c0-44.191406 35.945313-80.140625 80.132813-80.140625 40.277344 0 73.707031 29.867188 79.308594 68.621094 34.683593.707031 63.035156 27.683594 65.914062 61.804687h10.128906c37.199219 0 67.464844 30.269532 67.464844 67.472657s-30.265625 67.472656-67.464844 67.472656zm0 0" fill="#00d7df"/><path d="m38.46875 194.839844c15.175781-54.035156 49.71875-100.253906 97.277344-130.148438 44.042968-27.6875 94.578125-39.160156 146.136718-33.171875 37.378907 4.339844 73.148438 18.035157 103.699219 39.355469l-23.664062.816406 1.03125 29.980469 77.921875-2.683594-2.820313-76.964843-29.976562 1.097656 1.015625 27.738281c-35.945313-26.757813-78.824219-43.925781-123.75-49.140625-28.328125-3.289062-56.753906-1.855469-84.484375 4.261719-28.699219 6.328125-55.976563 17.535156-81.074219 33.3125-53.867188 33.859375-93.003906 86.222656-110.191406 147.433593-17.066406 60.773438-11.21875 125.324219 16.460937 181.757813l26.933594-13.214844c-24.429687-49.796875-29.582031-106.773437-14.515625-160.429687zm0 0" fill="#cbe8f8"/><path d="m478.800781 130.046875-26.105469 14.78125c28.660157 50.621094 36.625 109.648437 22.433594 166.214844-14.238281 56.738281-49.363281 105.136719-98.90625 136.277343-45.742187 28.753907-100.304687 40.152344-153.628906 32.09375-41.492188-6.273437-80.246094-23.9375-111.949219-50.613281l27.957031-.964843-1.03125-29.980469-77.925781 2.683593 2.824219 76.964844 29.976562-1.097656-.898437-24.46875c35.871094 30.117188 79.679687 50.054688 126.5625 57.140625 12.664063 1.910156 25.382813 2.855469 38.066406 2.855469 47.832031 0 95.042969-13.460938 136.007813-39.210938 56.121094-35.277344 95.910156-90.101562 112.039062-154.378906 16.078125-64.070312 7.050782-130.941406-25.421875-188.296875zm0 0" fill="#cbe8f8"/><path d="m372.347656 235.417969h-10.125c-2.882812-34.125-31.230468-61.101563-65.917968-61.808594-3.507813-24.289063-17.953126-45.082031-38.160157-57.226563v253.976563h114.203125c37.203125 0 67.464844-30.269531 67.464844-67.472656s-30.265625-67.46875-67.464844-67.46875zm0 0" fill="#00aadf"/><path d="m164.554688 266.171875c0-19.289063 14.804687-32.835937 34.988281-32.835937 12.289062 0 21.976562 4.488281 28.167969 12.558593l-13.367188 11.933594c-3.675781-4.664063-8.074219-7.355469-13.726562-7.355469-8.789063 0-14.710938 6.101563-14.710938 15.699219 0 9.601563 5.921875 15.703125 14.710938 15.703125 5.652343 0 10.050781-2.695312 13.726562-7.359375l13.367188 11.933594c-6.191407 8.074219-15.878907 12.558593-28.167969 12.558593-20.183594.003907-34.988281-13.546874-34.988281-32.835937zm0 0" fill="#007a9f"/><path d="m238.925781 266.171875c0-19.019531 14.984375-32.835937 35.4375-32.835937s35.433594 13.816406 35.433594 32.835937-14.980469 32.839844-35.433594 32.839844-35.4375-13.820313-35.4375-32.839844zm49.519531 0c0-9.777344-6.277343-15.699219-14.082031-15.699219-7.804687 0-14.085937 5.921875-14.085937 15.699219 0 9.78125 6.28125 15.703125 14.085937 15.703125 7.804688 0 14.082031-5.921875 14.082031-15.703125zm0 0" fill="#007a9f"/><path d="m274.363281 233.335938c-5.949219 0-11.429687 1.175781-16.21875 3.300781v59.070312c4.789063 2.125 10.269531 3.300781 16.21875 3.300781 20.453125 0 35.433594-13.816406 35.433594-32.835937s-14.980469-32.835937-35.433594-32.835937zm0 48.539062c-7.804687 0-14.085937-5.921875-14.085937-15.703125 0-9.777344 6.28125-15.699219 14.085937-15.699219 7.804688 0 14.082031 5.921875 14.082031 15.699219 0 9.78125-6.277343 15.703125-14.082031 15.703125zm0 0" fill="#00607f"/><path d="m350.976562 312.125v9.644531h-29.566406v-7.640625l13.335938-12.335937c2.527344-2.371094 2.898437-3.792969 2.898437-5.058594 0-1.789063-1.214843-2.898437-3.585937-2.898437-2.210938 0-4.320313 1.210937-5.425782 3.425781l-9.382812-4.691407c2.6875-5.058593 8.011719-8.539062 15.96875-8.539062 8.75 0 14.914062 4.535156 14.914062 11.542969 0 3.636719-.949218 6.90625-6.324218 11.753906l-5.269532 4.796875zm0 0" fill="#00607f"/><g fill="#9cd6f3"><path d="m438.054688 22.023438-29.980469 1.097656 1.019531 27.742187c-35.949219-26.761719-78.828125-43.929687-123.753906-49.144531-9.0625-1.050781-18.136719-1.617188-27.195313-1.703125v29.980469c7.875.097656 15.792969.601562 23.738281 1.523437 37.378907 4.339844 73.148438 18.035157 103.699219 39.355469l-23.664062.816406 1.03125 29.980469 77.925781-2.683594zm0 0"/><path d="m478.800781 130.046875-26.105469 14.78125c28.660157 50.621094 36.625 109.648437 22.433594 166.214844-14.238281 56.738281-49.363281 105.136719-98.90625 136.277343-35.601562 22.378907-76.539062 34.238282-118.078125 34.601563v29.996094c47.15625-.367188 93.636719-13.800781 134.039063-39.195313 56.121094-35.277344 95.910156-90.105468 112.039062-154.378906 16.078125-64.070312 7.050782-130.941406-25.421875-188.296875zm0 0"/></g></svg>