<?xml version="1.0" encoding="iso-8859-1"?>
<!-- Generator: Adobe Illustrator 19.0.0, SVG Export Plug-In . SVG Version: 6.00 Build 0)  -->
<svg version="1.1" id="Capa_1" xmlns="http://www.w3.org/2000/svg" xmlns:xlink="http://www.w3.org/1999/xlink" x="0px" y="0px"
	 viewBox="0 0 464.057 464.057" style="enable-background:new 0 0 464.057 464.057;" xml:space="preserve">
<path style="fill:#CBCFD3;" d="M432.028,80.057c-0.272,0-0.528,0.072-0.8,0.08c-3.355-16.403-16.589-28.97-33.144-31.472
	c-8.429-34.276-43.048-55.23-77.325-46.801c-22.911,5.634-40.855,23.433-46.675,46.297c-0.68-0.032-1.36-0.104-2.056-0.104
	c-26.51,0.011-47.991,21.509-47.981,48.019c0.011,26.495,21.486,47.97,47.981,47.981h160c17.673,0,32-14.327,32-32
	S449.701,80.057,432.028,80.057z"/>
<path style="fill:#E1E4E7;" d="M352.028,208.057c-11.173-0.005-22.15,2.937-31.824,8.528c17.999-35.423,3.874-78.73-31.55-96.729
	c-35.423-17.999-78.73-3.874-96.729,31.55c-4.487,8.83-7.102,18.492-7.681,28.379c-42.111-13.372-87.088,9.926-100.46,52.037
	c-0.867,2.731-1.587,5.507-2.156,8.315c-0.528,0-1.056-0.08-1.6-0.08c-26.51,0-48,21.49-48,48s21.49,48,48,48h272
	c35.346,0,64-28.654,64-64S387.374,208.057,352.028,208.057z"/>
<path style="fill:#EFF2FA;" d="M0.028,251.857c34.902,8.537,65.02,30.512,83.8,61.144c47.933-6.911,92.393,26.345,99.304,74.278
	c1.382,9.589,1.166,19.34-0.64,28.858c0.512,0,1.016-0.08,1.536-0.08c27.84-0.003,51.455,20.446,55.432,48H0.028V251.857z"/>
<path style="fill:#E1E4E7;" d="M120.028,32.057c-6.003,0.022-11.777,2.307-16.168,6.4C103.016,16.426,84.473-0.75,62.442,0.093
	C44.005,0.799,28.454,14.047,24.828,32.137c-0.272-0.008-0.528-0.08-0.8-0.08c-13.255,0-24,10.745-24,24s10.745,24,24,24h96
	c13.255,0,24-10.745,24-24S133.282,32.057,120.028,32.057z"/>
<g>
</g>
<g>
</g>
<g>
</g>
<g>
</g>
<g>
</g>
<g>
</g>
<g>
</g>
<g>
</g>
<g>
</g>
<g>
</g>
<g>
</g>
<g>
</g>
<g>
</g>
<g>
</g>
<g>
</g>
</svg>
